<svg id="그룹_19627" data-name="그룹 19627" xmlns="http://www.w3.org/2000/svg" xmlns:xlink="http://www.w3.org/1999/xlink" width="51.396" height="134.809" viewBox="0 0 51.396 134.809">
  <defs>
    <clipPath id="clip-path">
      <rect id="사각형_31764" data-name="사각형 31764" width="36.956" height="70.898" fill="#fff"/>
    </clipPath>
  </defs>
  <g id="img_suit_side" transform="translate(0)">
    <path id="패스_11204" data-name="패스 11204" d="M36.493,73.163a7.367,7.367,0,0,0-6.7-9.019,7.263,7.263,0,0,0-7.7,6.663l-2.65,32.1a4.971,4.971,0,0,0,4.842,5.376A4.9,4.9,0,0,0,29.16,104.5Z" transform="translate(-12.176 -1.517)" fill="#a7a7a7"/>
    <path id="패스_11205" data-name="패스 11205" d="M37.976,66.042a2.834,2.834,0,0,0-3.634-2.019L24.8,67.693a2.506,2.506,0,0,0-.32.15c-2.085.96-1.8,3.545-1.385,4.752a48.327,48.327,0,0,1,3.565,5.732l13.078,27.356a2.765,2.765,0,0,0,3.6,1.472l3.725-1.718a2.8,2.8,0,0,0,1.389-3.371Z" transform="translate(-12.256 -1.511)" fill="#cfcfcf"/>
    <g id="그룹_19625" data-name="그룹 19625" clip-path="url(#clip-path)">
      <path id="패스_11206" data-name="패스 11206" d="M21.6,67.542a11.67,11.67,0,0,1,.088-11.047c.7-1.4.636-3.683.738-4.766-.091-2.1-.493-7.069-.738-9.127a41.131,41.131,0,0,1,2.16-19.087c.861-2.51,3.049-5.7,2.7-8.409-.365-2.765-2.7-4-2.878-7.979C23.742,4.521,24.75,1.67,28.392.491A9.171,9.171,0,0,1,33.653.3c2.721.753,4.99,2.754,5.033,5.666.02,1.238-.37,1.784.011,2.69.274.646,1.012,1.045,1.291,1.7.342.8-.94.978-1.077,1.7a.232.232,0,0,1-.011.062c-.085.415-.171.833-.274,1.246-.177.71-.271,1.436-.407,2.159-.117.611-.678.806-1.334.782-.157-.008-1.009-.145-1.693-.273a.975.975,0,0,0-1.14.678,20.431,20.431,0,0,0-.735,3.981c0,1.607,1.291,2.987,2.109,4.313,2.046,3.322,3.582,6.681,3.574,10.52l-.051,22.561c-.14,3.5-.41,6.989-.556,10.485A2.591,2.591,0,0,1,35.6,70.633H22.667L21.6,67.545Z" transform="translate(-12.195)" fill="#cfcfcf"/>
    </g>
    <g id="그룹_19626" data-name="그룹 19626" transform="translate(10.712 25.116)" opacity="0.5">
      <path id="패스_11207" data-name="패스 11207" d="M27.519,25.725c-2,0-4.249,2.747-4.532,6.592s3.4,19.5,3.682,19.777A85.91,85.91,0,0,1,31.484,67.75c1.133,6.318.85,7.966.85,8.241a.889.889,0,0,0,.85.824s0,.824,1.133.55c0,0,.985.936,1.483.056a1.491,1.491,0,0,0,1.349-.331c.567-.55,1.416-3.571,1.133-5.494a15.779,15.779,0,0,0-1.7-4.4L32.617,50.17V32.042S32.618,25.725,27.519,25.725Z" transform="translate(-22.972 -25.725)" fill="#fff" opacity="0.5"/>
    </g>
    <path id="패스_11208" data-name="패스 11208" d="M16.819,124.021a3.57,3.57,0,0,1-.094-.966,73.044,73.044,0,0,1,1.909-16.238,6.357,6.357,0,0,1,7.386-4.536,2.727,2.727,0,0,1,2.172,3.348c-.241.962-.473,1.886-.7,2.784-1.332,5.3-2.435,9.687-3.734,15.547a3.589,3.589,0,0,1-.292.826l-.115,2.031.022.081a7.67,7.67,0,0,0,2.3,3.888c.165.154.31.292.44.416,1.225,1.162,1.24,1.176,5.66,3.383,1.5.4,1.561,1.419,1.244,2.443s-18.235-2.206-18.913-3,1.2-5.659,1.583-6.267a15.045,15.045,0,0,0,.887-1.981Z" transform="translate(-12.046 -2.417)" fill="#a7a7a7" fill-rule="evenodd"/>
  </g>
  <path id="calf_right" d="M18.736,26.862a2.611,2.611,0,0,1-.276-.6l-.217-.683c-1.978-6.214-3.677-11.549-4.009-19.574A2.569,2.569,0,0,1,16.394,3.4l3.586-.625a2.622,2.622,0,0,1,3.074,2.3c.106,1.033.206,2.024.3,2.985.577,5.7,1.05,10.379,1.9,16.78a2.616,2.616,0,0,1,.021.425l.451,1.509.048.068a7.673,7.673,0,0,0,3.488,2.873c.208.089.39.169.556.241,1.547.676,1.567.684,6.473,1.256,1.543-.134,1.95.8,2,1.873s-17.9,4.13-18.8,3.614-.794-5.731-.644-6.432A15.024,15.024,0,0,0,19,28.1Z" transform="translate(13.105 98.054)" fill="#cfcfcf"/>
</svg>
