<svg xmlns="http://www.w3.org/2000/svg" width="94.654" height="25.125" viewBox="0 0 94.654 25.125">
  <path id="합치기_33" data-name="합치기 33" d="M129.928,12.063A11.922,11.922,0,0,1,142.131,0a10.524,10.524,0,0,1,9.834,6l-5.179,2.876a5.023,5.023,0,0,0-4.933-2.917c-3.253,0-5.417,2.4-5.417,6.2s2.188,6.236,5.687,6.236c1.852,0,3.016-.172,4-1.066V15.652H142.3V11.333h9.966l.008.008v8.088c-1.778,2.746-5.483,4.7-10.146,4.7A11.961,11.961,0,0,1,129.928,12.063Zm86.5,11.546-2.146-4.335c-.788-1.573-1.672-2.146-3.721-2.146h-1.164l-.033,6.482h-6.244l-.008-.008V.565h9.661c5.466,0,9.629,2.556,9.629,7.646a6.435,6.435,0,0,1-4.4,6.384c1.164.754,1.91,2.082,2.934,4.163l2.352,4.851Zm-7-17.25-.032,5.154h3.376c1.844,0,3.138-1.024,3.138-2.663,0-1.737-1.294-2.491-3.073-2.491h-3.417ZM193.076,23.6l-1.057-3.892h-8.088l-1.09,3.892h-6.449l5.941-19.39h-.008a5.889,5.889,0,0,1,11.26,0l5.941,19.39Zm-5.36-17.546-2.22,8.023h4.95l-2.189-8.023c-.065-.238-.139-.344-.27-.344S187.782,5.81,187.717,6.055ZM156.38,18.307V5.842c0-3.245,1.573-5.294,5.466-5.294h11.809v5.63H162.7V9.251h10.17v5.63H162.7v3.073h11.128v5.63H161.846V23.6C157.954,23.6,156.38,21.551,156.38,18.307Z" transform="translate(-129.428 0.5)" fill="#fff" stroke="rgba(0,0,0,0)" stroke-miterlimit="10" stroke-width="1"/>
</svg>
