<svg xmlns="http://www.w3.org/2000/svg" width="196.269" height="22.045" viewBox="0 0 196.269 22.045">
  <path id="합치기_7" data-name="합치기 7" d="M113.35,10.525A10.4,10.4,0,0,1,123.994,0a9.176,9.176,0,0,1,8.58,5.233l-4.521,2.507a4.38,4.38,0,0,0-4.3-2.543c-2.832,0-4.723,2.1-4.723,5.412s1.906,5.439,4.961,5.439c1.617,0,2.631-.147,3.49-.93V13.653h-3.33V9.886h8.691l.006.009v7.057c-1.553,2.4-4.783,4.094-8.85,4.094A10.432,10.432,0,0,1,113.35,10.525Zm-67.062-.067A10.368,10.368,0,0,1,56.977.049a9.231,9.231,0,0,1,8.611,5.175L61.053,7.7A4.406,4.406,0,0,0,56.73,5.189c-2.852,0-4.744,2.073-4.744,5.354s1.916,5.381,4.982,5.381c1.621,0,2.645-.152,3.5-.921V13.555H57.129V9.828h8.729l.01.009v6.977c-1.561,2.368-4.807,4.053-8.891,4.053A10.4,10.4,0,0,1,46.287,10.458ZM35.924,19.266,28.746,8.125V20.42H23.469V3.4A3.357,3.357,0,0,1,26.938,0a3.791,3.791,0,0,1,3.377,1.6l7.178,11.141V.474H42.77V17.5A3.331,3.331,0,0,1,39.3,20.862,3.811,3.811,0,0,1,35.924,19.266ZM188.809,20.6l-1.873-3.785c-.687-1.372-1.461-1.873-3.248-1.873h-1.016l-.025,5.658H177.2l-.01-.009V.492h8.428c4.77,0,8.4,2.23,8.4,6.672a5.615,5.615,0,0,1-3.838,5.569c1.014.657,1.666,1.815,2.561,3.633l2.051,4.233Zm-6.1-15.052-.033,4.5h2.945c1.609,0,2.74-.889,2.74-2.32,0-1.52-1.131-2.177-2.682-2.177H182.7ZM168.439,20.589l-.922-3.4h-7.061l-.947,3.4h-5.625l5.184-16.916h-.01a5.136,5.136,0,0,1,9.822,0l5.184,16.916ZM163.764,5.283l-1.939,7h4.318l-1.908-7c-.059-.206-.121-.3-.238-.3S163.816,5.068,163.764,5.283Zm-27.34,10.69V5.095c0-2.829,1.375-4.616,4.771-4.616h10.3V5.39h-9.559V8.071h8.871v4.911h-8.871v2.682h9.707v4.911H141.2v.013C137.8,20.589,136.424,18.8,136.424,15.973ZM93.988,20.42c-3.441,0-4.826-1.774-4.826-4.581V.474H94.74V15.4h8.988V20.42Zm-19.635,0c-3.441,0-4.828-1.774-4.828-4.581V5.055c0-2.807,1.387-4.581,4.828-4.581H84.787V5.35h-9.68V8.009H84.09v4.876H75.107v2.659h9.828V20.42Zm-59.6,0-.936-3.37H6.664L5.7,20.42H0L5.248,3.633a5.042,5.042,0,0,1,4.975-3.6,5.039,5.039,0,0,1,4.977,3.6L20.445,20.42ZM10.012,5.229,8.055,12.174h4.369L10.5,5.229c-.062-.206-.121-.295-.244-.295S10.074,5.023,10.012,5.229Z" transform="translate(0.678 0.5)" fill="#fff" stroke="rgba(0,0,0,0)" stroke-miterlimit="10" stroke-width="1"/>
</svg>
